name C:\Users\u0150099\Documents\master_thesis\3dpredictsim\Results\debug\Fal_s1_mtjc2_sc_cspx10_oy2_TrackAnkleQSubtQ_ATx70_STm5_MTc2_MTPm_k1_d01_MTJm_nl_MG_exp5_table_d01_PF_Natali2010_x3_ls146_ig21.mot
datacolumns 128
datarows 4
range 0.55818576 0.59167691
endheader
time	pelvis_tilt	pelvis_list	pelvis_rotation	pelvis_tx	pelvis_ty	pelvis_tz	hip_flexion_l	hip_adduction_l	hip_rotation_l	hip_flexion_r	hip_adduction_r	hip_rotation_r	knee_angle_l	knee_angle_r	ankle_angle_l	ankle_angle_r	subtalar_angle_l	subtalar_angle_r	mtj_angle_l	mtj_angle_r	mtp_angle_l	mtp_angle_r	lumbar_extension	lumbar_bending	lumbar_rotation	arm_flex_l	arm_add_l	arm_rot_l	arm_flex_r	arm_add_r	arm_rot_r	elbow_flex_l	elbow_flex_r	pro_sup_l	pro_sup_r	glut_med1_l/activation	glut_med2_l/activation	glut_med3_l/activation	glut_min1_l/activation	glut_min2_l/activation	glut_min3_l/activation	semimem_l/activation	semiten_l/activation	bifemlh_l/activation	bifemsh_l/activation	sar_l/activation	add_long_l/activation	add_brev_l/activation	add_mag1_l/activation	add_mag2_l/activation	add_mag3_l/activation	tfl_l/activation	pect_l/activation	grac_l/activation	glut_max1_l/activation	glut_max2_l/activation	glut_max3_l/activation	iliacus_l/activation	psoas_l/activation	quad_fem_l/activation	gem_l/activation	peri_l/activation	rect_fem_l/activation	vas_med_l/activation	vas_int_l/activation	vas_lat_l/activation	med_gas_l/activation	lat_gas_l/activation	soleus_l/activation	tib_post_l/activation	flex_dig_l/activation	flex_hal_l/activation	tib_ant_l/activation	per_brev_l/activation	per_long_l/activation	per_tert_l/activation	ext_dig_l/activation	ext_hal_l/activation	ercspn_l/activation	intobl_l/activation	extobl_l/activation	glut_med1_r/activation	glut_med2_r/activation	glut_med3_r/activation	glut_min1_r/activation	glut_min2_r/activation	glut_min3_r/activation	semimem_r/activation	semiten_r/activation	bifemlh_r/activation	bifemsh_r/activation	sar_r/activation	add_long_r/activation	add_brev_r/activation	add_mag1_r/activation	add_mag2_r/activation	add_mag3_r/activation	tfl_r/activation	pect_r/activation	grac_r/activation	glut_max1_r/activation	glut_max2_r/activation	glut_max3_r/activation	iliacus_r/activation	psoas_r/activation	quad_fem_r/activation	gem_r/activation	peri_r/activation	rect_fem_r/activation	vas_med_r/activation	vas_int_r/activation	vas_lat_r/activation	med_gas_r/activation	lat_gas_r/activation	soleus_r/activation	tib_post_r/activation	flex_dig_r/activation	flex_hal_r/activation	tib_ant_r/activation	per_brev_r/activation	per_long_r/activation	per_tert_r/activation	ext_dig_r/activation	ext_hal_r/activation	ercspn_r/activation	intobl_r/activation	extobl_r/activation	
          0.55818576	         -2.90255491	          1.18825566	         -4.58338710	          0.74238707	          0.90569647	          0.00439142	         27.54372551	          2.24554607	         -2.54174837	        -18.79975582	          1.13455358	          8.36005223	         -5.62777041	         -8.17990791	          1.82745350	          5.43554059	         -0.07186806	          5.14439308	          2.54728639	         -1.44472201	         -6.56830862	         17.02764821	         -3.07762795	          0.13474093	          1.96835673	         -7.03030335	        -13.47943333	          4.73254475	          3.82909250	        -14.08809492	         19.37995069	         26.54776206	         36.19993027	         86.51662706	         86.51662706	          0.05002774	          0.05000071	          0.05930312	          0.05000022	          0.05000033	          0.05000157	          0.37189219	          0.07033716	          0.07034990	          0.05000080	          0.05000093	          0.12677259	          0.15651812	          0.15219754	          0.16258840	          0.13147271	          0.05000434	          0.05003748	          0.11656655	          0.06172606	          0.09162863	          0.10222876	          0.05000013	          0.05000021	          0.17234302	          0.05000096	          0.05000032	          0.05000024	          0.05929106	          0.05929425	          0.05344635	          0.08563726	          0.05000236	          0.05456701	          0.05000026	          0.07762264	          0.05037210	          0.24829303	          0.05069302	          0.07783299	          0.34097929	          0.62502915	          0.33256085	          0.05139095	          0.11446933	          0.12135927	          0.34485269	          0.08992951	          0.05930314	          0.48110360	          0.25499189	          0.11171512	          0.05000225	          0.05000029	          0.05000025	          0.08794616	          0.11735533	          0.05000008	          0.05000011	          0.05000021	          0.05000074	          0.05000056	          0.70849375	          0.05000047	          0.05000049	          0.05002176	          0.05000240	          0.05000117	          0.37520440	          0.79473792	          0.05000016	          0.05000078	          0.05000047	          0.35475441	          0.05000057	          0.05000055	          0.05000050	          0.43363972	          0.49920323	          0.29476873	          0.47046619	          0.38961487	          0.53317558	          0.05000002	          0.05636599	          0.29386268	          0.05000011	          0.05000016	          0.12416075	          0.05000002	          0.05000002	          0.05000007	
          0.56934948	         -2.91278233	          1.33513224	         -4.85054885	          0.76004105	          0.90519925	          0.00415960	         27.04328815	          2.68126780	         -2.46248744	        -18.86592449	          0.76361842	          8.30609344	         -5.58590115	         -9.72271202	          1.46695955	          4.38120408	         -0.24379544	          5.44738562	          2.64790836	         -2.74786036	         -6.72033878	         20.40289188	         -2.92198091	         -0.11603129	          2.07409826	         -7.82409486	        -13.45503478	          4.43172182	          3.41801831	        -14.03652876	         19.28706864	         26.10524732	         37.53457135	         86.51662706	         86.51662706	          0.05930305	          0.05930308	          0.05000028	          0.05930318	          0.05930315	          0.05930146	          0.33617581	          0.05930326	          0.05931391	          0.05930309	          0.05000068	          0.13791958	          0.17141689	          0.12832255	          0.17474356	          0.14351036	          0.05000017	          0.05050172	          0.09828137	          0.05204317	          0.07725517	          0.14826684	          0.05000206	          0.05000069	          0.35057937	          0.19582235	          0.09815209	          0.05000007	          0.05000017	          0.05000017	          0.05000016	          0.08204766	          0.05000035	          0.05000003	          0.05510193	          0.08270726	          0.08189344	          0.24812814	          0.05000019	          0.12497170	          0.31293464	          0.65008522	          0.33070465	          0.05000004	          0.09651211	          0.10232121	          0.29075449	          0.07582196	          0.05000007	          0.40563124	          0.21499044	          0.09419000	          0.05000380	          0.05000039	          0.05000019	          0.07414975	          0.09894552	          0.06205920	          0.05000135	          0.05000082	          0.05000214	          0.05000213	          0.66059864	          0.05054218	          0.05000045	          0.05000093	          0.05000073	          0.05000084	          0.31634475	          0.74133930	          0.05000006	          0.05000026	          0.05000012	          0.35406607	          0.08191849	          0.08448327	          0.07243656	          0.36561307	          0.42089146	          0.24852727	          0.42723605	          0.39780334	          0.46845977	          0.05000001	          0.05930343	          0.27935690	          0.05000011	          0.05000003	          0.10468321	          0.05000001	          0.05334110	          0.08342661	
          0.58051319	         -2.91902981	          1.49823505	         -5.09295526	          0.77801787	          0.90482599	          0.00389437	         26.55896931	          3.08479312	         -2.37092354	        -18.85041113	          0.37324327	          8.21507028	         -6.24669731	        -11.33762472	          0.62319711	          3.02956527	         -0.45362052	          5.73360735	          2.69249624	         -4.17222304	         -6.71936076	         24.08799195	         -2.75224952	         -0.38668479	          2.17271159	         -8.61772421	        -13.45197686	          4.36166709	          2.91664708	        -13.98223396	         19.12301822	         25.62480365	         38.88879936	         86.51662706	         86.51662706	          0.05000002	          0.05000009	          0.12189518	          0.05000012	          0.05000011	          0.05000012	          0.28343881	          0.05000017	          0.05000914	          0.05000004	          0.05000068	          0.11628418	          0.27543368	          0.27698705	          0.17927197	          0.17926835	          0.05000230	          0.07051396	          0.08286378	          0.09019653	          0.13621559	          0.15682452	          0.05000015	          0.05000054	          0.49677006	          0.16510308	          0.08275472	          0.07033507	          0.15281061	          0.15104102	          0.11655526	          0.07033711	          0.06703797	          0.06394162	          0.05000003	          0.06973285	          0.06904691	          0.34515119	          0.10630643	          0.10536699	          0.59718350	          0.68874950	          0.49456602	          0.05000000	          0.08137191	          0.08626971	          0.24514281	          0.06392752	          0.05930307	          0.34199846	          0.18126415	          0.07941411	          0.05000296	          0.05000081	          0.05002899	          0.06251764	          0.08342372	          0.14895024	          0.14157015	          0.05930403	          0.05930363	          0.05930403	          0.63654160	          0.05000463	          0.05002381	          0.05929121	          0.05930244	          0.05930298	          0.26671862	          0.67244214	          0.05930310	          0.05930310	          0.05000288	          0.29852263	          0.11638545	          0.12113577	          0.09953374	          0.30825800	          0.35486469	          0.20953988	          0.36021404	          0.33539894	          0.39497105	          0.05000000	          0.05000035	          0.25747021	          0.05000004	          0.05000003	          0.08826118	          0.05000363	          0.07033711	          0.07033929	
          0.59167691	         -2.92225353	          1.70422819	         -5.31305215	          0.79621274	          0.90461742	          0.00364159	         26.01864768	          3.41968942	         -2.20888012	        -18.72293519	         -0.04868245	          8.08505875	         -7.18442376	        -13.04644340	         -0.40196144	          1.31440803	         -0.65535674	          5.94569000	          2.83867693	         -5.67204482	         -6.61036875	         28.05398108	         -2.57266004	         -0.70764535	          2.25977007	         -9.38769546	        -13.47645902	          4.50206559	          2.34887443	        -13.91515718	         18.92108529	         25.08057674	         40.24271275	         86.51662706	         86.51662706	          0.34405324	          0.36261329	          0.42207738	          0.35756571	          0.26748969	          0.24417408	          0.23897486	          0.16869486	          0.11588795	          0.11735698	          0.05930412	          0.09804231	          0.23222545	          0.23353516	          0.15114903	          0.19679649	          0.05000047	          0.05945284	          0.21187529	          0.25306696	          0.20939151	          0.13222305	          0.05930318	          0.05930307	          0.41883998	          0.13920299	          0.12772072	          0.05930136	          0.12883867	          0.12734668	          0.09827082	          0.05930307	          0.05652148	          0.05391086	          0.05930307	          0.05879361	          0.05821528	          0.38942498	          0.08962977	          0.08883795	          0.50350117	          0.82155602	          0.71022809	          0.06457938	          0.09733556	          0.07273627	          0.20982033	          0.05389900	          0.05000002	          0.33775159	          0.15282867	          0.06695617	          0.05000288	          0.05000026	          0.05000010	          0.05930308	          0.07033721	          0.13213105	          0.11936167	          0.05000092	          0.05000094	          0.05000097	          0.68493479	          0.07032209	          0.05000045	          0.05000058	          0.05000035	          0.05000030	          0.23859955	          0.68683523	          0.05000006	          0.05000020	          0.05000004	          0.25169232	          0.09812768	          0.10213280	          0.08391955	          0.25990043	          0.29919577	          0.17666859	          0.30370595	          0.28278375	          0.33301059	          0.06226774	          0.10934113	          0.22967200	          0.05000021	          0.05000004	          0.07441534	          0.08637970	          0.05930307	          0.05930491	
